PathFileType	4	(X/Y/Z)	pose_F01_0-89.trc
DataRate	CameraRate	NumFrames	NumMarkers	Units	OrigDataRate	OrigDataStartFrame	OrigNumFrames
30	30	9	21	m	30	55	89
Frame#	Time	CHip			RHip			RKnee			RAnkle			RBigToe			RSmallToe			RHeel			LHip			LKnee			LAnkle			LBigToe			LSmallToe			LHeel			Neck			Nose			RShoulder			RElbow			RWrist			LShoulder			LElbow			LWrist			
		X1	Y1	Z1	X2	Y2	Z2	X3	Y3	Z3	X4	Y4	Z4	X5	Y5	Z5	X6	Y6	Z6	X7	Y7	Z7	X8	Y8	Z8	X9	Y9	Z9	X10	Y10	Z10	X11	Y11	Z11	X12	Y12	Z12	X13	Y13	Z13	X14	Y14	Z14	X15	Y15	Z15	X16	Y16	Z16	X17	Y17	Z17	X18	Y18	Z18	X19	Y19	Z19	X20	Y20	Z20	X21	Y21	Z21	
55	1.8333333333333333	-0.2281890198461104	1.8303975035285596	-0.5187643674084363	-0.24229538413443957	1.8295347851086812	-0.4589755180503566	-0.24959105120237143	1.711348517628211	-0.4697339930624186	-0.23617752880919282	1.6136640673274332	-0.4413703695802904							-0.22638552464021186	1.6123964979942877	-0.4246374230687787	-0.21202601603824392	1.8341295019979738	-0.5843242778203973	-0.2171812636654623	1.707318226217712	-0.5527086586542408	-0.2140570016884345	1.6086968402067132	-0.522407867045606	-0.2255416305526336	1.5787062446354532	-0.5679935604488026	-0.2187914900220557	1.5779545034715432	-0.5663704637122396	-0.20993992993143082	1.5987219086420719	-0.49748644042206275	-1.6609863762695043	1.88828966706956	1.0381688693342037	-0.22907400076640505	2.048128619662759	-0.5679915623527483	-0.24116018102054954	1.976715900979188	-0.44356034482494267	-0.2461865767515926	1.9010536729266303	-0.3858770565624579	-1.4471565862877431	1.8741083068491466	0.8680533453888146	-0.19510161323021158	1.9857886869501165	-0.6263833765964213	-0.16965635367998663	1.9232769142416317	-0.6505150666799945	-0.19750781397051004	1.9293939979731376	-0.6589605932343077
56	1.8666666666666667	-0.2263267868000857	1.835836782675792	-0.5163829930995628	-0.23853268663026864	1.8360600638484834	-0.45867563974541686	-0.25011848680368726	1.711940209819638	-0.46665300428342726	-0.23617752880919282	1.6136640673274332	-0.4413703695802904							-0.22638552464021186	1.6123964979942877	-0.4246374230687787	-0.2100625689028936	1.8397569905014224	-0.5734763384201546	-0.21897933935337835	1.715252181341395	-0.565998422037314	-0.21371773319661913	1.6112461754943361	-0.5178654860281995	-0.2251322135496426	1.5801996205750148	-0.5616416627394342	-0.2180423168024065	1.5807096137540984	-0.5658733645613627	-0.2105590382912526	1.602063753618466	-0.4911295817795218	-1.6734279854722849	1.8904354796543306	1.058641718049149	-0.22874271954911307	2.053504902328992	-0.5681097717938693	-0.23750178780855646	1.9858056580889887	-0.4428474917201468	-0.2545308779567044	1.9191850751310042	-0.4146204737839977	-1.742976797299976	1.8845846009809266	1.1674211332490882	-1.4902318398931447	1.892367516223699	0.7644897992854194	-0.1803617496792758	1.9308663882297057	-0.6519009301789647	-0.19858519910334038	1.9444322085258292	-0.6583635767833974
57	1.9	-0.22796683935484266	1.8406567244584267	-0.5111382601497745	-0.24004260872360778	1.838318407409819	-0.45317585784476466	-0.25064592240500305	1.7125319020110645	-0.463572015504436	-0.23617752880919282	1.6136640673274332	-0.4413703695802904							-0.22638552464021186	1.6123964979942877	-0.4246374230687787	-0.20988701771036464	1.8438920187068428	-0.5702709961672545	-0.22077741504129436	1.7231861364650782	-0.5792881854203872	-0.2133784647048038	1.613795510781959	-0.5133231050107929	-0.22472279654665162	1.5816929965145765	-0.5552897650300659	-0.21729314358275728	1.5834647240366535	-0.5653762654104859	-0.21117814665107443	1.6054055985948605	-0.48477272313698094	-0.22097632019456168	1.993742346213508	-0.5288616198318511	-0.2288832827990485	2.056370988113652	-0.5695384686448858	-0.24002186197063857	1.9901295486178587	-0.4429381466139779	-0.2629190050242251	1.9181229077573996	-0.4154626902217404	-0.2566303427620337	1.9690417108247256	-0.4722919098775041	-0.19773835522015068	1.9954118161534882	-0.6081913788918171	-0.1874245669294756	1.926049670458003	-0.6450891440753084	-0.19966258423617073	1.9594704190785206	-0.6577665603324871
58	1.9333333333333333	-0.22815382089573233	1.8395417311668951	-0.5019549159712354	-0.23819376952923493	1.8343363751658903	-0.4370019621096588	-0.24961335084731295	1.7132959817282627	-0.460281619866163	-0.23617752880919282	1.6136640673274332	-0.4413703695802904							-0.22638552464021186	1.6123964979942877	-0.4246374230687787	-0.21112390715452703	1.841516013192184	-0.5643738472152218	-0.2225754907292104	1.7311200915887612	-0.5925779488034604	-0.21303919621298845	1.6163448460695822	-0.5087807239933864	-0.22431337954366062	1.5831863724541382	-0.5489378673206975	-0.21654397036310805	1.5862198343192087	-0.5648791662596091	-0.21179725501089625	1.6087474435712548	-0.47841586449444007	-0.2193824513342147	1.9871654717645968	-0.5130877689232707	-0.23117820278002116	2.0500566805309233	-0.5667613504198075	-0.24227099822282494	1.9856195458748835	-0.44025549805434694	-0.27146820881733424	1.9094821437946745	-0.4061256086932149	-0.26766204690830836	1.9567917884486452	-0.47889574503405224	-0.19729962679020974	1.9885867177622258	-0.595862396637888	-0.1882865033675952	1.9175273727721158	-0.6358185478687508	-0.19585579669215966	1.9688695428465222	-0.6340556887531184
59	1.9666666666666666	-0.22754458170541092	1.8380216852178315	-0.5020334126496642	-0.23757198381369127	1.8331631135951898	-0.4370230543932807	-0.24858077928962286	1.714060061445461	-0.45699122422788996	-0.23617752880919282	1.6136640673274332	-0.4413703695802904							-0.22638552464021186	1.6123964979942877	-0.4246374230687787	-0.21231678928022493	1.837505453499822	-0.5623017883580886	-0.2272210437094733	1.725385960935826	-0.5999884945644729	-0.2126999277211731	1.618894181357205	-0.5042383429759798	-0.22390396254066963	1.5846797483936998	-0.5425859696113292	-0.21579479714345884	1.5889749446017638	-0.5643820671087322	-0.21241636337071806	1.612089288547649	-0.47205900585189914	-1.7377915900316119	1.8902117933818003	1.1691247730987306	-0.23024211796138858	2.0447507598559818	-0.5623479869304108	-0.24280015953197645	1.981128036944941	-0.43308277548245094	-0.2632946514299755	1.9032161595422978	-0.38111818369185935	-0.2668312183629554	1.9592955901796416	-0.4604746575284812	-0.1983806050918166	1.98516215987793	-0.589696951150936	-0.16943872414154376	1.9142317114404022	-0.6206614344831592	-0.1915712263133183	1.957269004708064	-0.6383011318504409
60	2.0	-0.22611933187691818	1.8404081826895493	-0.5078998144709165	-0.23525640538743664	1.8388514632478106	-0.4400858958421241	-0.24754820773193276	1.7148241411626592	-0.45370082858961697	-0.23617752880919282	1.6136640673274332	-0.4413703695802904							-0.22638552464021186	1.6123964979942877	-0.4246374230687787	-0.20802380678148338	1.842591054165752	-0.5673639402623519	-0.22746461950045357	1.7213922825393253	-0.5780323285234901	-0.21340018485832787	1.6066808869930367	-0.5019256252625177	-0.22390396254066963	1.5846797483936998	-0.5425859696113292	-0.21934323053126656	1.5811417308328113	-0.5602385488842887	-0.2095854288531736	1.601918257113695	-0.47882686657812584	-1.7376286361513782	1.8904657939196439	1.168789000393891	-0.2280917322901322	2.0469243231622722	-0.564352078681588	-0.2417721076205825	1.9810770354637246	-0.42982212038051976	-0.2676833089619542	1.9081043751380182	-0.3720830648819057	-0.25697801125220626	1.9575348898674376	-0.4714729226972037	-0.1948056802783027	1.9884468117430858	-0.59726378520573	-0.1618341030739302	1.9324558118288695	-0.6675748151914196	-1.3583945662336134	1.8760526804937818	0.5624807065409029
61	2.033333333333333	-0.2263582248110368	1.8380464561844663	-0.512860258217165	-0.23938671507717416	1.8356395108172783	-0.4494077006127654	-0.24651563617424266	1.7155882208798574	-0.450410432951344	-0.23617752880919282	1.6136640673274332	-0.4413703695802904							-0.22638552464021186	1.6123964979942877	-0.4246374230687787	-0.21000894987113675	1.8429882047386033	-0.570231819900822	-0.2179122933445255	1.7152550617205298	-0.5527083211170769	-0.2121841658488536	1.6073756975207834	-0.5051412016602361	-0.22390396254066963	1.5846797483936998	-0.5425859696113292	-0.21787021504240325	1.5816631923285163	-0.562466430901942	-0.2100734021648106	1.6023562854509132	-0.48383706292284534	-0.21743128188768196	1.9882924787041583	-0.5156305448667675	-0.2282133614060214	2.049008090916911	-0.5652771476301107	-0.2391715017609662	1.9851991484910017	-0.430520332325109	-0.26017774208416966	1.9075405983950573	-0.3409907155062839	-0.2598916288282954	1.9437094676378561	-0.42122188148693074	-0.19203343426466574	1.9912442020095749	-0.6063898770939642	-0.17008471275417505	1.9338705115003452	-0.6856970674079782	-0.18578434479614048	1.9858415502812166	-0.6932927114971097
62	2.066666666666667	-0.22622492421307044	1.833107210811902	-0.5126735234286429	-0.24140384982235433	1.8322696757838512	-0.4557308515839494	-0.24651563617424266	1.7155882208798574	-0.450410432951344	-0.23617752880919282	1.6136640673274332	-0.4413703695802904							-0.22638552464021186	1.6123964979942877	-0.4246374230687787	-0.20824222888895222	1.835961895117307	-0.5717674421564223	-0.21728063082668173	1.70820936590167	-0.5525925154606351	-0.21096814683937934	1.6080705080485298	-0.5083567780579545	-0.22390396254066963	1.5846797483936998	-0.5425859696113292	-0.21639719955353998	1.582184653824221	-0.5646943129195953	-0.2105613754764476	1.6027943137881315	-0.4888472592675649	-0.21533577734131223	1.982820499839218	-0.5167334587373439	-0.2303703615249961	2.0460632518577504	-0.562865595305824	-0.23805533488713493	1.9800186168327825	-0.4259894677714583	-0.24893362314175832	1.9095970301392933	-0.3240779062453943	-0.2642110991191201	1.9507762890722375	-0.3914982155331468	-0.18794511804000644	1.9869622343737674	-0.6103773161897552	-0.16939191361919895	1.927379612004514	-0.6813961697063605	-1.2869536540744737	1.8766357293259024	0.44796201659009177
63	2.1	-0.22898425656187188	1.8339873224624057	-0.5136761181725222	-0.24126047904830217	1.8329483333288197	-0.4557990455225967	-0.24651563617424266	1.7155882208798574	-0.450410432951344	-0.23617752880919282	1.6136640673274332	-0.4413703695802904							-0.22638552464021186	1.6123964979942877	-0.4246374230687787	-0.2107977345477519	1.8371211746303662	-0.5728872675984727	-0.2160838330218397	1.7114748553155943	-0.5542058847882521	-0.20975212782990504	1.6087653185762765	-0.5115723544556731	-0.22390396254066963	1.5846797483936998	-0.5425859696113292	-0.21492418406467667	1.582706115319926	-0.5669221949372485	-0.21104934878808462	1.6032323421253498	-0.4938574556122844	-1.7033074728470852	1.8904628174677263	1.1112017782417332	-0.2301050977778311	2.0467327415690213	-0.5622726486069239	-0.24085562240455752	1.981383391064673	-0.43524029284890947	-0.2536418299536333	1.911417262167773	-0.3384592297462055	-0.2685305694099448	1.9578431105066187	-0.3617745495793629	-0.19275261800142918	1.9860123215624708	-0.6082548283219327	-0.16088516635035646	1.9307088317865493	-0.6762764062757751	-1.274985280352808	1.864806020900548	0.42824190833051273
